<svg xmlns="http://www.w3.org/2000/svg" width="460" height="580"><line x1="40" x2="40" y1="10" y2="550" style="stroke:#000;stroke-width:3"/><line x1="70" x2="70" y1="10" y2="550" style="stroke:#000;stroke-width:3"/><line x1="100" x2="100" y1="10" y2="550" style="stroke:#000;stroke-width:3"/><line x1="130" x2="130" y1="10" y2="550" style="stroke:#000;stroke-width:3"/><line x1="160" x2="160" y1="10" y2="550" style="stroke:#000;stroke-width:3"/><line x1="190" x2="190" y1="10" y2="550" style="stroke:#000;stroke-width:3"/><line x1="220" x2="220" y1="10" y2="550" style="stroke:#000;stroke-width:3"/><line x1="250" x2="250" y1="10" y2="550" style="stroke:#000;stroke-width:3"/><line x1="280" x2="280" y1="10" y2="550" style="stroke:#000;stroke-width:3"/><line x1="310" x2="310" y1="10" y2="550" style="stroke:#000;stroke-width:3"/><line x1="340" x2="340" y1="10" y2="550" style="stroke:#000;stroke-width:3"/><line x1="370" x2="370" y1="10" y2="550" style="stroke:#000;stroke-width:3"/><line x1="400" x2="400" y1="10" y2="550" style="stroke:#000;stroke-width:3"/><line x1="10" x2="430" y1="40" y2="40" style="stroke:#000;stroke-width:3"/><line x1="10" x2="430" y1="70" y2="70" style="stroke:#000;stroke-width:3"/><line x1="10" x2="430" y1="100" y2="100" style="stroke:#000;stroke-width:3"/><line x1="10" x2="430" y1="130" y2="130" style="stroke:#000;stroke-width:3"/><line x1="10" x2="430" y1="160" y2="160" style="stroke:#000;stroke-width:3"/><line x1="10" x2="430" y1="190" y2="190" style="stroke:#000;stroke-width:3"/><line x1="10" x2="430" y1="220" y2="220" style="stroke:#000;stroke-width:3"/><line x1="10" x2="430" y1="250" y2="250" style="stroke:#000;stroke-width:3"/><line x1="10" x2="430" y1="280" y2="280" style="stroke:#000;stroke-width:3"/><line x1="10" x2="430" y1="310" y2="310" style="stroke:#000;stroke-width:3"/><line x1="10" x2="430" y1="340" y2="340" style="stroke:#000;stroke-width:3"/><line x1="10" x2="430" y1="370" y2="370" style="stroke:#000;stroke-width:3"/><line x1="10" x2="430" y1="400" y2="400" style="stroke:#000;stroke-width:3"/><line x1="10" x2="430" y1="430" y2="430" style="stroke:#000;stroke-width:3"/><line x1="10" x2="430" y1="460" y2="460" style="stroke:#000;stroke-width:3"/><line x1="10" x2="430" y1="490" y2="490" style="stroke:#000;stroke-width:3"/><line x1="10" x2="430" y1="520" y2="520" style="stroke:#000;stroke-width:3"/><text x="17" y="565" fill="#000">0</text><text x="47" y="565" fill="#000">1</text><text x="77" y="565" fill="#000">2</text><text x="107" y="565" fill="#000">3</text><text x="137" y="565" fill="#000">4</text><text x="167" y="565" fill="#000">5</text><text x="197" y="565" fill="#000">6</text><text x="227" y="565" fill="#000">7</text><text x="257" y="565" fill="#000">8</text><text x="287" y="565" fill="#000">9</text><text x="317" y="565" fill="#000">10</text><text x="347" y="565" fill="#000">11</text><text x="377" y="565" fill="#000">12</text><text x="407" y="565" fill="#000">13</text><text x="435" y="540" fill="#000">0</text><text x="435" y="510" fill="#000">1</text><text x="435" y="480" fill="#000">2</text><text x="435" y="450" fill="#000">3</text><text x="435" y="420" fill="#000">4</text><text x="435" y="390" fill="#000">5</text><text x="435" y="360" fill="#000">6</text><text x="435" y="330" fill="#000">7</text><text x="435" y="300" fill="#000">8</text><text x="435" y="270" fill="#000">9</text><text x="435" y="240" fill="#000">10</text><text x="435" y="210" fill="#000">11</text><text x="435" y="180" fill="#000">12</text><text x="435" y="150" fill="#000">13</text><text x="435" y="120" fill="#000">14</text><text x="435" y="90" fill="#000">15</text><text x="435" y="60" fill="#000">16</text><text x="435" y="30" fill="#000">17</text><line x1="25" x2="25" y1="415" y2="535" style="stroke:red;stroke-width:5"/><line x1="25" x2="25" y1="385" y2="295" style="stroke:red;stroke-width:5"/><line x1="25" x2="25" y1="175" y2="265" style="stroke:red;stroke-width:5"/><line x1="25" x2="25" y1="145" y2="25" style="stroke:red;stroke-width:5"/><line x1="55" x2="55" y1="415" y2="535" style="stroke:red;stroke-width:5"/><line x1="55" x2="55" y1="385" y2="295" style="stroke:red;stroke-width:5"/><line x1="55" x2="55" y1="175" y2="265" style="stroke:red;stroke-width:5"/><line x1="55" x2="55" y1="145" y2="25" style="stroke:red;stroke-width:5"/><line x1="85" x2="85" y1="415" y2="535" style="stroke:red;stroke-width:5"/><line x1="85" x2="85" y1="385" y2="295" style="stroke:red;stroke-width:5"/><line x1="85" x2="85" y1="175" y2="265" style="stroke:red;stroke-width:5"/><line x1="85" x2="85" y1="145" y2="25" style="stroke:red;stroke-width:5"/><line x1="145" x2="145" y1="415" y2="535" style="stroke:red;stroke-width:5"/><line x1="145" x2="145" y1="385" y2="295" style="stroke:red;stroke-width:5"/><line x1="145" x2="145" y1="175" y2="265" style="stroke:red;stroke-width:5"/><line x1="145" x2="145" y1="145" y2="25" style="stroke:red;stroke-width:5"/><line x1="175" x2="175" y1="415" y2="535" style="stroke:red;stroke-width:5"/><line x1="175" x2="175" y1="385" y2="295" style="stroke:red;stroke-width:5"/><line x1="175" x2="175" y1="175" y2="265" style="stroke:red;stroke-width:5"/><line x1="175" x2="175" y1="145" y2="25" style="stroke:red;stroke-width:5"/><line x1="205" x2="205" y1="415" y2="535" style="stroke:red;stroke-width:5"/><line x1="205" x2="205" y1="385" y2="295" style="stroke:red;stroke-width:5"/><line x1="205" x2="205" y1="175" y2="265" style="stroke:red;stroke-width:5"/><line x1="205" x2="205" y1="145" y2="25" style="stroke:red;stroke-width:5"/><line x1="235" x2="235" y1="415" y2="535" style="stroke:red;stroke-width:5"/><line x1="235" x2="235" y1="385" y2="295" style="stroke:red;stroke-width:5"/><line x1="235" x2="235" y1="175" y2="265" style="stroke:red;stroke-width:5"/><line x1="235" x2="235" y1="145" y2="25" style="stroke:red;stroke-width:5"/><line x1="265" x2="265" y1="415" y2="535" style="stroke:red;stroke-width:5"/><line x1="265" x2="265" y1="385" y2="295" style="stroke:red;stroke-width:5"/><line x1="265" x2="265" y1="175" y2="265" style="stroke:red;stroke-width:5"/><line x1="265" x2="265" y1="145" y2="25" style="stroke:red;stroke-width:5"/><line x1="295" x2="295" y1="415" y2="535" style="stroke:red;stroke-width:5"/><line x1="295" x2="295" y1="385" y2="295" style="stroke:red;stroke-width:5"/><line x1="295" x2="295" y1="175" y2="265" style="stroke:red;stroke-width:5"/><line x1="295" x2="295" y1="145" y2="25" style="stroke:red;stroke-width:5"/><line x1="355" x2="355" y1="415" y2="535" style="stroke:red;stroke-width:5"/><line x1="355" x2="355" y1="385" y2="295" style="stroke:red;stroke-width:5"/><line x1="355" x2="355" y1="175" y2="265" style="stroke:red;stroke-width:5"/><line x1="355" x2="355" y1="145" y2="25" style="stroke:red;stroke-width:5"/><line x1="385" x2="385" y1="415" y2="535" style="stroke:red;stroke-width:5"/><line x1="385" x2="385" y1="385" y2="295" style="stroke:red;stroke-width:5"/><line x1="385" x2="385" y1="175" y2="265" style="stroke:red;stroke-width:5"/><line x1="385" x2="385" y1="145" y2="25" style="stroke:red;stroke-width:5"/><line x1="415" x2="415" y1="415" y2="535" style="stroke:red;stroke-width:5"/><line x1="415" x2="415" y1="385" y2="295" style="stroke:red;stroke-width:5"/><line x1="415" x2="415" y1="175" y2="265" style="stroke:red;stroke-width:5"/><line x1="415" x2="415" y1="145" y2="25" style="stroke:red;stroke-width:5"/><line x1="115" x2="115" y1="445" y2="535" style="stroke:red;stroke-width:5"/><line x1="115" x2="115" y1="445" y2="415" style="stroke:red;stroke-width:5"/><line x1="115" x2="115" y1="385" y2="295" style="stroke:red;stroke-width:5"/><line x1="115" x2="115" y1="205" y2="265" style="stroke:red;stroke-width:5"/><line x1="115" x2="115" y1="205" y2="175" style="stroke:red;stroke-width:5"/><line x1="115" x2="115" y1="145" y2="25" style="stroke:red;stroke-width:5"/><line x1="325" x2="325" y1="445" y2="535" style="stroke:red;stroke-width:5"/><line x1="325" x2="325" y1="445" y2="415" style="stroke:red;stroke-width:5"/><line x1="325" x2="325" y1="385" y2="295" style="stroke:red;stroke-width:5"/><line x1="325" x2="325" y1="205" y2="265" style="stroke:red;stroke-width:5"/><line x1="325" x2="325" y1="205" y2="175" style="stroke:red;stroke-width:5"/><line x1="325" x2="325" y1="145" y2="25" style="stroke:red;stroke-width:5"/><circle cx="25" cy="415" r="5" fill="gray"/><circle cx="25" cy="385" r="5" fill="gray"/><circle cx="25" cy="175" r="5" fill="gray"/><circle cx="25" cy="145" r="5" fill="gray"/><circle cx="55" cy="415" r="5" fill="gray"/><circle cx="55" cy="385" r="5" fill="gray"/><circle cx="55" cy="175" r="5" fill="gray"/><circle cx="55" cy="145" r="5" fill="gray"/><circle cx="85" cy="415" r="5" fill="gray"/><circle cx="85" cy="385" r="5" fill="gray"/><circle cx="85" cy="175" r="5" fill="gray"/><circle cx="85" cy="145" r="5" fill="gray"/><circle cx="145" cy="415" r="5" fill="gray"/><circle cx="145" cy="385" r="5" fill="gray"/><circle cx="145" cy="175" r="5" fill="gray"/><circle cx="145" cy="145" r="5" fill="gray"/><circle cx="175" cy="415" r="5" fill="gray"/><circle cx="175" cy="385" r="5" fill="gray"/><circle cx="175" cy="175" r="5" fill="gray"/><circle cx="175" cy="145" r="5" fill="gray"/><circle cx="205" cy="415" r="5" fill="gray"/><circle cx="205" cy="385" r="5" fill="gray"/><circle cx="205" cy="175" r="5" fill="gray"/><circle cx="205" cy="145" r="5" fill="gray"/><circle cx="235" cy="415" r="5" fill="gray"/><circle cx="235" cy="385" r="5" fill="gray"/><circle cx="235" cy="175" r="5" fill="gray"/><circle cx="235" cy="145" r="5" fill="gray"/><circle cx="265" cy="415" r="5" fill="gray"/><circle cx="265" cy="385" r="5" fill="gray"/><circle cx="265" cy="175" r="5" fill="gray"/><circle cx="265" cy="145" r="5" fill="gray"/><circle cx="295" cy="415" r="5" fill="gray"/><circle cx="295" cy="385" r="5" fill="gray"/><circle cx="295" cy="175" r="5" fill="gray"/><circle cx="295" cy="145" r="5" fill="gray"/><circle cx="355" cy="415" r="5" fill="gray"/><circle cx="355" cy="385" r="5" fill="gray"/><circle cx="355" cy="175" r="5" fill="gray"/><circle cx="355" cy="145" r="5" fill="gray"/><circle cx="385" cy="415" r="5" fill="gray"/><circle cx="385" cy="385" r="5" fill="gray"/><circle cx="385" cy="175" r="5" fill="gray"/><circle cx="385" cy="145" r="5" fill="gray"/><circle cx="415" cy="415" r="5" fill="gray"/><circle cx="415" cy="385" r="5" fill="gray"/><circle cx="415" cy="175" r="5" fill="gray"/><circle cx="415" cy="145" r="5" fill="gray"/><circle cx="115" cy="445" r="5" fill="gray"/><circle cx="115" cy="445" r="5" fill="gray"/><circle cx="115" cy="385" r="5" fill="gray"/><circle cx="115" cy="205" r="5" fill="gray"/><circle cx="115" cy="205" r="5" fill="gray"/><circle cx="115" cy="145" r="5" fill="gray"/><circle cx="325" cy="445" r="5" fill="gray"/><circle cx="325" cy="445" r="5" fill="gray"/><circle cx="325" cy="385" r="5" fill="gray"/><circle cx="325" cy="205" r="5" fill="gray"/><circle cx="325" cy="205" r="5" fill="gray"/><circle cx="325" cy="145" r="5" fill="gray"/></svg>