<svg xmlns="http://www.w3.org/2000/svg" xmlns:svg="http://www.w3.org/2000/svg" xmlns:xlink="http://www.w3.org/1999/xlink" id="svg2" width="686.505" height="501" version="1.1"><metadata id="metadata7"/><g id="layer1" transform="translate(-19.5,-11.862183)"><rect style="fill:#b3b3b3;fill-opacity:0;fill-rule:evenodd;stroke:#000;stroke-width:1;stroke-linecap:round;stroke-miterlimit:4;stroke-opacity:1;stroke-dasharray:none" id="rect2987" width="670" height="470" x="20" y="32.362"/><path style="fill:none;stroke:#000;stroke-width:1px;stroke-linecap:round;stroke-linejoin:miter;stroke-opacity:1" id="path2989" d="M 75,12.362183 75,132.36218"/><text xml:space="preserve" style="font-size:8.57574844px;font-style:normal;font-weight:400;line-height:125%;letter-spacing:0;word-spacing:0;fill:#b3b3b3;fill-opacity:1;stroke:none;font-family:Sans" id="text3759" x="-112.362" y="70" transform="matrix(0,-1,1,0,0,0)"><tspan id="tspan3761" x="-112.362" y="70">span4_vert_t_0</tspan></text><path id="path3770" d="m 100,12.362183 0,119.999997" style="fill:none;stroke:#000;stroke-width:1px;stroke-linecap:round;stroke-linejoin:miter;stroke-opacity:1"/><text id="text3772" x="-112.362" y="95" transform="matrix(0,-1,1,0,0,0)" style="font-size:8.57574844px;font-style:normal;font-weight:400;line-height:125%;letter-spacing:0;word-spacing:0;fill:#b3b3b3;fill-opacity:1;stroke:none;font-family:Sans" xml:space="preserve"><tspan id="tspan3774" x="-112.362" y="95">span4_vert_t_1</tspan></text><g id="use3792" transform="translate(50,0)"><path id="path3824" d="M 75,12.362183 75,132.36218" style="fill:none;stroke:#000;stroke-width:1px;stroke-linecap:round;stroke-linejoin:miter;stroke-opacity:1"/><text id="text3826" x="-112.362" y="70" transform="matrix(0,-1,1,0,0,0)" style="font-size:8.57574844px;font-style:normal;font-weight:400;line-height:125%;letter-spacing:0;word-spacing:0;fill:#b3b3b3;fill-opacity:1;stroke:none;font-family:Sans" xml:space="preserve"><tspan id="tspan3828" x="-112.362" y="70">span4_vert_t_2</tspan></text></g><g id="use3796" transform="translate(100,0)"><path id="path3840" d="M 75,12.362183 75,132.36218" style="fill:none;stroke:#000;stroke-width:1px;stroke-linecap:round;stroke-linejoin:miter;stroke-opacity:1"/><text id="text3842" x="-112.362" y="70" transform="matrix(0,-1,1,0,0,0)" style="font-size:8.57574844px;font-style:normal;font-weight:400;line-height:125%;letter-spacing:0;word-spacing:0;fill:#b3b3b3;fill-opacity:1;stroke:none;font-family:Sans" xml:space="preserve"><tspan id="tspan3844" x="-112.362" y="70">span4_vert_t_4</tspan></text></g><g id="use3798" transform="translate(125.00001,0)"><path id="path3848" d="M 75,12.362183 75,132.36218" style="fill:none;stroke:#000;stroke-width:1px;stroke-linecap:round;stroke-linejoin:miter;stroke-opacity:1"/><text id="text3850" x="-112.362" y="70" transform="matrix(0,-1,1,0,0,0)" style="font-size:8.57574844px;font-style:normal;font-weight:400;line-height:125%;letter-spacing:0;word-spacing:0;fill:#b3b3b3;fill-opacity:1;stroke:none;font-family:Sans" xml:space="preserve"><tspan id="tspan3852" x="-112.362" y="70">span4_vert_t_5</tspan></text></g><g id="use3800" transform="translate(150.00001,0)"><path id="path3856" d="M 75,12.362183 75,132.36218" style="fill:none;stroke:#000;stroke-width:1px;stroke-linecap:round;stroke-linejoin:miter;stroke-opacity:1"/><text id="text3858" x="-112.362" y="70" transform="matrix(0,-1,1,0,0,0)" style="font-size:8.57574844px;font-style:normal;font-weight:400;line-height:125%;letter-spacing:0;word-spacing:0;fill:#b3b3b3;fill-opacity:1;stroke:none;font-family:Sans" xml:space="preserve"><tspan id="tspan3860" x="-112.362" y="70">span4_vert_t_6</tspan></text></g><g id="use3802" transform="translate(175,0)"><path id="path3864" d="M 75,12.362183 75,132.36218" style="fill:none;stroke:#000;stroke-width:1px;stroke-linecap:round;stroke-linejoin:miter;stroke-opacity:1"/><text id="text3866" x="-112.362" y="70" transform="matrix(0,-1,1,0,0,0)" style="font-size:8.57574844px;font-style:normal;font-weight:400;line-height:125%;letter-spacing:0;word-spacing:0;fill:#b3b3b3;fill-opacity:1;stroke:none;font-family:Sans" xml:space="preserve"><tspan id="tspan3868" x="-112.362" y="70">span4_vert_t_7</tspan></text></g><g id="use3804" transform="translate(200.00001,0)"><path id="path3872" d="M 75,12.362183 75,132.36218" style="fill:none;stroke:#000;stroke-width:1px;stroke-linecap:round;stroke-linejoin:miter;stroke-opacity:1"/><text id="text3874" x="-112.362" y="70" transform="matrix(0,-1,1,0,0,0)" style="font-size:8.57574844px;font-style:normal;font-weight:400;line-height:125%;letter-spacing:0;word-spacing:0;fill:#b3b3b3;fill-opacity:1;stroke:none;font-family:Sans" xml:space="preserve"><tspan id="tspan3876" x="-112.362" y="70">span4_vert_t_8</tspan></text></g><g id="use3806" transform="translate(225,0)"><path id="path3880" d="M 75,12.362183 75,132.36218" style="fill:none;stroke:#000;stroke-width:1px;stroke-linecap:round;stroke-linejoin:miter;stroke-opacity:1"/><text id="text3882" x="-112.362" y="70" transform="matrix(0,-1,1,0,0,0)" style="font-size:8.57574844px;font-style:normal;font-weight:400;line-height:125%;letter-spacing:0;word-spacing:0;fill:#b3b3b3;fill-opacity:1;stroke:none;font-family:Sans" xml:space="preserve"><tspan id="tspan3884" x="-112.362" y="70">span4_vert_t_9</tspan></text></g><g id="use3808" transform="translate(250,0)"><g id="use3794" transform="translate(75.000002,0)"><path id="path3832" d="M 75,12.362183 75,132.36218" style="fill:none;stroke:#000;stroke-width:1px;stroke-linecap:round;stroke-linejoin:miter;stroke-opacity:1"/><text id="text3834" x="-112.362" y="70" transform="matrix(0,-1,1,0,0,0)" style="font-size:8.57574844px;font-style:normal;font-weight:400;line-height:125%;letter-spacing:0;word-spacing:0;fill:#000;fill-opacity:1;stroke:none;font-family:Sans" xml:space="preserve"><tspan id="tspan3836" x="-112.362" y="70">span4_vert_t_13</tspan></text></g><path id="path3888" d="M 75,12.362183 75,132.36218" style="fill:none;stroke:#000;stroke-width:1px;stroke-linecap:round;stroke-linejoin:miter;stroke-opacity:1"/><text id="text3890" x="-112.362" y="70" transform="matrix(0,-1,1,0,0,0)" style="font-size:8.57574844px;font-style:normal;font-weight:400;line-height:125%;letter-spacing:0;word-spacing:0;fill:#b3b3b3;fill-opacity:1;stroke:none;font-family:Sans" xml:space="preserve"><tspan id="tspan3892" x="-112.362" y="70">span4_vert_t_10</tspan></text></g><g id="use3810" transform="translate(275.00001,0)"><path id="path3896" d="M 75,12.362183 75,132.36218" style="fill:none;stroke:#000;stroke-width:1px;stroke-linecap:round;stroke-linejoin:miter;stroke-opacity:1"/><text id="text3898" x="-112.362" y="70" transform="matrix(0,-1,1,0,0,0)" style="font-size:8.57574844px;font-style:normal;font-weight:400;line-height:125%;letter-spacing:0;word-spacing:0;fill:#b3b3b3;fill-opacity:1;stroke:none;font-family:Sans" xml:space="preserve"><tspan id="tspan3900" x="-112.362" y="70">span4_vert_t_11</tspan></text></g><g id="use3812" transform="translate(300,0)"><path id="path3904" d="M 75,12.362183 75,132.36218" style="fill:none;stroke:#000;stroke-width:1px;stroke-linecap:round;stroke-linejoin:miter;stroke-opacity:1"/><text id="text3906" x="-112.362" y="70" transform="matrix(0,-1,1,0,0,0)" style="font-size:8.57574844px;font-style:normal;font-weight:400;line-height:125%;letter-spacing:0;word-spacing:0;fill:#000;fill-opacity:1;stroke:none;font-family:Sans" xml:space="preserve"><tspan id="tspan3908" x="-112.362" y="70">span4_vert_t_12</tspan></text></g><g id="use3814" transform="translate(75,0)"><path id="path3912" d="M 75,12.362183 75,132.36218" style="fill:none;stroke:#000;stroke-width:1px;stroke-linecap:round;stroke-linejoin:miter;stroke-opacity:1"/><text id="text3914" x="-112.362" y="70" transform="matrix(0,-1,1,0,0,0)" style="font-size:8.57574844px;font-style:normal;font-weight:400;line-height:125%;letter-spacing:0;word-spacing:0;fill:#b3b3b3;fill-opacity:1;stroke:none;font-family:Sans" xml:space="preserve"><tspan id="tspan3306" x="-112.362" y="70">span4_vert_t_3</tspan></text></g><g id="use3816" transform="translate(349.99999,0)"><path id="path3920" d="M 75,12.362183 75,132.36218" style="fill:none;stroke:#000;stroke-width:1px;stroke-linecap:round;stroke-linejoin:miter;stroke-opacity:1"/><text id="text3922" x="-112.362" y="70" transform="matrix(0,-1,1,0,0,0)" style="font-size:8.57574844px;font-style:normal;font-weight:400;line-height:125%;letter-spacing:0;word-spacing:0;fill:#000;fill-opacity:1;stroke:none;font-family:Sans" xml:space="preserve"><tspan id="tspan3924" x="-112.362" y="70">span4_vert_t_14</tspan></text></g><g id="use3818" transform="translate(375,0)"><path id="path3928" d="M 75,12.362183 75,132.36218" style="fill:none;stroke:#000;stroke-width:1px;stroke-linecap:round;stroke-linejoin:miter;stroke-opacity:1"/><text id="text3930" x="-112.362" y="70" transform="matrix(0,-1,1,0,0,0)" style="font-size:8.57574844px;font-style:normal;font-weight:400;line-height:125%;letter-spacing:0;word-spacing:0;fill:#000;fill-opacity:1;stroke:none;font-family:Sans" xml:space="preserve"><tspan id="tspan3932" x="-112.362" y="70">span4_vert_t_15</tspan></text></g><path style="fill:none;stroke:#000;stroke-width:1px;stroke-linecap:round;stroke-linejoin:miter;stroke-opacity:1" id="path2989-5" d="m 75.000003,392.36218 0,120"/><text xml:space="preserve" style="font-size:8.57574844px;font-style:normal;font-weight:400;line-height:125%;letter-spacing:0;word-spacing:0;fill:#000;fill-opacity:1;stroke:none;font-family:Sans" id="text3759-0" x="-492.362" y="70" transform="matrix(0,-1,1,0,0,0)"><tspan id="tspan3761-5" x="-492.362" y="70">span4_vert_b_0</tspan></text><path id="path3770-5" d="m 100,392.36218 0,120" style="fill:none;stroke:#000;stroke-width:1px;stroke-linecap:round;stroke-linejoin:miter;stroke-opacity:1"/><text id="text3772-3" x="-492.362" y="95" transform="matrix(0,-1,1,0,0,0)" style="font-size:8.57574844px;font-style:normal;font-weight:400;line-height:125%;letter-spacing:0;word-spacing:0;fill:#000;fill-opacity:1;stroke:none;font-family:Sans" xml:space="preserve"><tspan id="tspan3774-0" x="-492.362" y="95">span4_vert_b_1</tspan></text><g id="use3792-6" transform="translate(50.000003,380)"><path id="path3824-8" d="M 75,12.362183 75,132.36218" style="fill:none;stroke:#000;stroke-width:1px;stroke-linecap:round;stroke-linejoin:miter;stroke-opacity:1"/><text id="text3826-3" x="-112.362" y="70" transform="matrix(0,-1,1,0,0,0)" style="font-size:8.57574844px;font-style:normal;font-weight:400;line-height:125%;letter-spacing:0;word-spacing:0;fill:#000;fill-opacity:1;stroke:none;font-family:Sans" xml:space="preserve"><tspan id="tspan3828-9" x="-112.362" y="70">span4_vert_b_2</tspan></text></g><g id="use3794-4" transform="translate(75.000003,380)"><path id="path3832-9" d="M 75,12.362183 75,132.36218" style="fill:none;stroke:#000;stroke-width:1px;stroke-linecap:round;stroke-linejoin:miter;stroke-opacity:1"/><text id="text3834-3" x="-112.362" y="70" transform="matrix(0,-1,1,0,0,0)" style="font-size:8.57574844px;font-style:normal;font-weight:400;line-height:125%;letter-spacing:0;word-spacing:0;fill:#000;fill-opacity:1;stroke:none;font-family:Sans" xml:space="preserve"><tspan id="tspan3836-2" x="-112.362" y="70">span4_vert_b_3</tspan></text></g><g id="use3796-4" transform="translate(100,380)"><path id="path3840-0" d="M 75,12.362183 75,132.36218" style="fill:none;stroke:#000;stroke-width:1px;stroke-linecap:round;stroke-linejoin:miter;stroke-opacity:1"/><text id="text3842-0" x="-112.362" y="70" transform="matrix(0,-1,1,0,0,0)" style="font-size:8.57574844px;font-style:normal;font-weight:400;line-height:125%;letter-spacing:0;word-spacing:0;fill:#000;fill-opacity:1;stroke:none;font-family:Sans" xml:space="preserve"><tspan id="tspan3844-7" x="-112.362" y="70">span4_vert_b_4</tspan></text></g><g id="use3798-6" transform="translate(125.00001,380)"><path id="path3848-7" d="M 75,12.362183 75,132.36218" style="fill:none;stroke:#000;stroke-width:1px;stroke-linecap:round;stroke-linejoin:miter;stroke-opacity:1"/><text id="text3850-3" x="-112.362" y="70" transform="matrix(0,-1,1,0,0,0)" style="font-size:8.57574844px;font-style:normal;font-weight:400;line-height:125%;letter-spacing:0;word-spacing:0;fill:#000;fill-opacity:1;stroke:none;font-family:Sans" xml:space="preserve"><tspan id="tspan3852-7" x="-112.362" y="70">span4_vert_b_5</tspan></text></g><g id="use3800-9" transform="translate(150.00001,380)"><path id="path3856-9" d="M 75,12.362183 75,132.36218" style="fill:none;stroke:#000;stroke-width:1px;stroke-linecap:round;stroke-linejoin:miter;stroke-opacity:1"/><text id="text3858-8" x="-112.362" y="70" transform="matrix(0,-1,1,0,0,0)" style="font-size:8.57574844px;font-style:normal;font-weight:400;line-height:125%;letter-spacing:0;word-spacing:0;fill:#000;fill-opacity:1;stroke:none;font-family:Sans" xml:space="preserve"><tspan id="tspan3860-5" x="-112.362" y="70">span4_vert_b_6</tspan></text></g><g id="use3802-4" transform="translate(175,380)"><path id="path3864-9" d="M 75,12.362183 75,132.36218" style="fill:none;stroke:#000;stroke-width:1px;stroke-linecap:round;stroke-linejoin:miter;stroke-opacity:1"/><text id="text3866-3" x="-112.362" y="70" transform="matrix(0,-1,1,0,0,0)" style="font-size:8.57574844px;font-style:normal;font-weight:400;line-height:125%;letter-spacing:0;word-spacing:0;fill:#000;fill-opacity:1;stroke:none;font-family:Sans" xml:space="preserve"><tspan id="tspan3868-8" x="-112.362" y="70">span4_vert_b_7</tspan></text></g><g id="use3804-1" transform="translate(200.00001,380)"><path id="path3872-0" d="M 75,12.362183 75,132.36218" style="fill:none;stroke:#000;stroke-width:1px;stroke-linecap:round;stroke-linejoin:miter;stroke-opacity:1"/><text id="text3874-8" x="-112.362" y="70" transform="matrix(0,-1,1,0,0,0)" style="font-size:8.57574844px;font-style:normal;font-weight:400;line-height:125%;letter-spacing:0;word-spacing:0;fill:#000;fill-opacity:1;stroke:none;font-family:Sans" xml:space="preserve"><tspan id="tspan3876-8" x="-112.362" y="70">span4_vert_b_8</tspan></text></g><g id="use3806-7" transform="translate(225,380)"><path id="path3880-4" d="M 75,12.362183 75,132.36218" style="fill:none;stroke:#000;stroke-width:1px;stroke-linecap:round;stroke-linejoin:miter;stroke-opacity:1"/><text id="text3882-8" x="-112.362" y="70" transform="matrix(0,-1,1,0,0,0)" style="font-size:8.57574844px;font-style:normal;font-weight:400;line-height:125%;letter-spacing:0;word-spacing:0;fill:#000;fill-opacity:1;stroke:none;font-family:Sans" xml:space="preserve"><tspan id="tspan3884-4" x="-112.362" y="70">span4_vert_b_9</tspan></text></g><g id="use3808-2" transform="translate(250,380)"><path id="path3888-1" d="M 75,12.362183 75,132.36218" style="fill:none;stroke:#000;stroke-width:1px;stroke-linecap:round;stroke-linejoin:miter;stroke-opacity:1"/><text id="text3890-5" x="-112.362" y="70" transform="matrix(0,-1,1,0,0,0)" style="font-size:8.57574844px;font-style:normal;font-weight:400;line-height:125%;letter-spacing:0;word-spacing:0;fill:#000;fill-opacity:1;stroke:none;font-family:Sans" xml:space="preserve"><tspan id="tspan3892-8" x="-112.362" y="70">span4_vert_b_10</tspan></text></g><g id="use3810-2" transform="translate(275.00001,380)"><path id="path3896-8" d="M 75,12.362183 75,132.36218" style="fill:none;stroke:#000;stroke-width:1px;stroke-linecap:round;stroke-linejoin:miter;stroke-opacity:1"/><text id="text3898-0" x="-112.362" y="70" transform="matrix(0,-1,1,0,0,0)" style="font-size:8.57574844px;font-style:normal;font-weight:400;line-height:125%;letter-spacing:0;word-spacing:0;fill:#000;fill-opacity:1;stroke:none;font-family:Sans" xml:space="preserve"><tspan id="tspan3900-9" x="-112.362" y="70">span4_vert_b_11</tspan></text></g><g id="use3812-9" transform="translate(300,380)"><path id="path3904-2" d="M 75,12.362183 75,132.36218" style="fill:none;stroke:#000;stroke-width:1px;stroke-linecap:round;stroke-linejoin:miter;stroke-opacity:1"/><text id="text3906-8" x="-112.362" y="70" transform="matrix(0,-1,1,0,0,0)" style="font-size:8.57574844px;font-style:normal;font-weight:400;line-height:125%;letter-spacing:0;word-spacing:0;fill:#000;fill-opacity:1;stroke:none;font-family:Sans" xml:space="preserve"><tspan id="tspan3908-7" x="-112.362" y="70">span4_vert_b_12</tspan></text></g><g id="use3814-2" transform="translate(325.00001,380)"><path id="path3912-3" d="M 75,12.362183 75,132.36218" style="fill:none;stroke:#000;stroke-width:1px;stroke-linecap:round;stroke-linejoin:miter;stroke-opacity:1"/><text id="text3914-4" x="-112.362" y="70" transform="matrix(0,-1,1,0,0,0)" style="font-size:8.57574844px;font-style:normal;font-weight:400;line-height:125%;letter-spacing:0;word-spacing:0;fill:#000;fill-opacity:1;stroke:none;font-family:Sans" xml:space="preserve"><tspan id="tspan3916-1" x="-112.362" y="70">span4_vert_b_13</tspan></text></g><g id="use3816-2" transform="translate(349.99999,380)"><path id="path3920-4" d="M 75,12.362183 75,132.36218" style="fill:none;stroke:#000;stroke-width:1px;stroke-linecap:round;stroke-linejoin:miter;stroke-opacity:1"/><text id="text3922-8" x="-112.362" y="70" transform="matrix(0,-1,1,0,0,0)" style="font-size:8.57574844px;font-style:normal;font-weight:400;line-height:125%;letter-spacing:0;word-spacing:0;fill:#000;fill-opacity:1;stroke:none;font-family:Sans" xml:space="preserve"><tspan id="tspan3924-8" x="-112.362" y="70">span4_vert_b_14</tspan></text></g><g id="use3818-3" transform="translate(375,380)"><path id="path3928-4" d="M 75,12.362183 75,132.36218" style="fill:none;stroke:#000;stroke-width:1px;stroke-linecap:round;stroke-linejoin:miter;stroke-opacity:1"/><text id="text3930-6" x="-112.362" y="70" transform="matrix(0,-1,1,0,0,0)" style="font-size:8.57574844px;font-style:normal;font-weight:400;line-height:125%;letter-spacing:0;word-spacing:0;fill:#000;fill-opacity:1;stroke:none;font-family:Sans" xml:space="preserve"><tspan id="tspan3932-6" x="-112.362" y="70">span4_vert_b_15</tspan></text></g><path style="fill:none;stroke:#000;stroke-width:1px;stroke-linecap:round;stroke-linejoin:miter;stroke-opacity:1" id="path4149" d="m 100.00076,132.37796 100,260"/><use id="use4199" width="744.094" height="1052.362" x="0" y="0" transform="translate(-25.000763,0)" xlink:href="#path4149"/><use id="use4201" width="744.094" height="1052.362" x="0" y="0" transform="translate(50.001526,0)" xlink:href="#path4149"/><use id="use4203" width="744.094" height="1052.362" x="0" y="0" transform="translate(75.00229,0)" xlink:href="#path4149"/><use id="use4205" width="744.094" height="1052.362" x="0" y="0" transform="translate(100.00305,0)" xlink:href="#path4149"/><use id="use4207" width="744.094" height="1052.362" x="0" y="0" transform="translate(125.00382,0)" xlink:href="#path4149"/><use id="use4209" width="744.094" height="1052.362" x="0" y="0" transform="translate(150.0046,0)" xlink:href="#path4149"/><use id="use4211" width="744.094" height="1052.362" x="0" y="0" transform="translate(225.00686,0)" xlink:href="#path4149"/><use id="use4213" width="744.094" height="1052.362" x="0" y="0" transform="translate(250.00767,0)" xlink:href="#path4149"/><use id="use4215" width="744.094" height="1052.362" x="0" y="0" transform="translate(175.00534,0)" xlink:href="#path4149"/><use id="use4217" width="744.094" height="1052.362" x="0" y="0" transform="translate(25.000762,0)" xlink:href="#path4149"/><use id="use4219" width="744.094" height="1052.362" x="0" y="0" transform="translate(200.00613,0)" xlink:href="#path4149"/><g id="g3120" transform="matrix(0,1,-1,0,701.9863,132.73806)"><path style="fill:none;stroke:#000;stroke-width:1px;stroke-linecap:round;stroke-linejoin:miter;stroke-opacity:1" id="path3122" d="m -64.375877,-3.0137 0,175"/><text xml:space="preserve" style="font-size:8.57574844px;font-style:normal;font-weight:400;line-height:125%;letter-spacing:0;word-spacing:0;fill:#000;fill-opacity:1;stroke:none;font-family:Sans" id="text3124" x="-161.986" y="-69.376" transform="matrix(0,-1,1,0,0,0)"><tspan id="tspan3126" x="-161.986" y="-69.376">span4_horz_0 .. span4_horz_47</tspan></text><path id="path3156" d="m -9.375877,-3.0137 0,175" style="fill:none;stroke:#000;stroke-width:1px;stroke-linecap:round;stroke-linejoin:miter;stroke-opacity:1"/><path style="fill:none;stroke:#000;stroke-width:1px;stroke-linecap:round;stroke-linejoin:miter;stroke-opacity:1" id="path3158" d="m -14.375877,-3.0137 0,175"/><path id="path3160" d="m -19.375877,-3.0137 0,175" style="fill:none;stroke:#000;stroke-width:1px;stroke-linecap:round;stroke-linejoin:miter;stroke-opacity:1"/><path style="fill:none;stroke:#000;stroke-width:1px;stroke-linecap:round;stroke-linejoin:miter;stroke-opacity:1" id="path3162" d="m -24.375877,-3.0137 0,175"/><path id="path3164" d="m -29.375877,-3.0137 0,175" style="fill:none;stroke:#000;stroke-width:1px;stroke-linecap:round;stroke-linejoin:miter;stroke-opacity:1"/><path style="fill:none;stroke:#000;stroke-width:1px;stroke-linecap:round;stroke-linejoin:miter;stroke-opacity:1" id="path3166" d="m -34.375877,-3.0137 0,175"/><path id="path3168" d="m -39.375877,-3.0137 0,175" style="fill:none;stroke:#000;stroke-width:1px;stroke-linecap:round;stroke-linejoin:miter;stroke-opacity:1"/><path style="fill:none;stroke:#000;stroke-width:1px;stroke-linecap:round;stroke-linejoin:miter;stroke-opacity:1" id="path3170" d="m -44.375877,-3.0137 0,175"/><path id="path3172" d="m -49.375877,-3.0137 0,175" style="fill:none;stroke:#000;stroke-width:1px;stroke-linecap:round;stroke-linejoin:miter;stroke-opacity:1"/><path style="fill:none;stroke:#000;stroke-width:1px;stroke-linecap:round;stroke-linejoin:miter;stroke-opacity:1" id="path3174" d="m -54.375877,-3.0137 0,175"/><path id="path3176" d="m -59.375877,-3.0137 0,175" style="fill:none;stroke:#000;stroke-width:1px;stroke-linecap:round;stroke-linejoin:miter;stroke-opacity:1"/><path id="path3182" d="m 0.778962,-3.2662381 0,174.9999981" style="fill:none;stroke:#000;stroke-width:1px;stroke-linecap:round;stroke-linejoin:miter;stroke-opacity:1"/><path style="fill:none;stroke:#000;stroke-width:1px;stroke-linecap:round;stroke-linejoin:miter;stroke-opacity:1" id="path3184" d="m 55.778962,-3.2662381 0,174.9999981"/><path id="path3186" d="m 50.778962,-3.2662381 0,174.9999981" style="fill:none;stroke:#000;stroke-width:1px;stroke-linecap:round;stroke-linejoin:miter;stroke-opacity:1"/><path style="fill:none;stroke:#000;stroke-width:1px;stroke-linecap:round;stroke-linejoin:miter;stroke-opacity:1" id="path3188" d="m 45.778962,-3.2662381 0,174.9999981"/><path id="path3190" d="m 40.778962,-3.2662381 0,174.9999981" style="fill:none;stroke:#000;stroke-width:1px;stroke-linecap:round;stroke-linejoin:miter;stroke-opacity:1"/><path style="fill:none;stroke:#000;stroke-width:1px;stroke-linecap:round;stroke-linejoin:miter;stroke-opacity:1" id="path3192" d="m 35.778962,-3.2662381 0,174.9999981"/><path id="path3194" d="m 30.778963,-3.2662381 0,174.9999981" style="fill:none;stroke:#000;stroke-width:1px;stroke-linecap:round;stroke-linejoin:miter;stroke-opacity:1"/><path style="fill:none;stroke:#000;stroke-width:1px;stroke-linecap:round;stroke-linejoin:miter;stroke-opacity:1" id="path3196" d="m 25.778962,-3.2662381 0,174.9999981"/><path id="path3198" d="m 20.778962,-3.2662381 0,174.9999981" style="fill:none;stroke:#000;stroke-width:1px;stroke-linecap:round;stroke-linejoin:miter;stroke-opacity:1"/><path style="fill:none;stroke:#000;stroke-width:1px;stroke-linecap:round;stroke-linejoin:miter;stroke-opacity:1" id="path3200" d="m 15.778962,-3.2662381 0,174.9999981"/><path id="path3202" d="m 10.778962,-3.2662381 0,174.9999981" style="fill:none;stroke:#000;stroke-width:1px;stroke-linecap:round;stroke-linejoin:miter;stroke-opacity:1"/><path style="fill:none;stroke:#000;stroke-width:1px;stroke-linecap:round;stroke-linejoin:miter;stroke-opacity:1" id="path3204" d="m 5.778962,-3.2662381 0,174.9999981"/><path style="fill:none;stroke:#000;stroke-width:1px;stroke-linecap:round;stroke-linejoin:miter;stroke-opacity:1" id="path3206" d="m 65.42872,-3.2662381 0,174.9999981"/><path id="path3208" d="m 120.42872,-3.2662381 0,174.9999981" style="fill:none;stroke:#000;stroke-width:1px;stroke-linecap:round;stroke-linejoin:miter;stroke-opacity:1"/><path style="fill:none;stroke:#000;stroke-width:1px;stroke-linecap:round;stroke-linejoin:miter;stroke-opacity:1" id="path3210" d="m 115.42872,-3.2662381 0,174.9999981"/><path id="path3212" d="m 110.42872,-3.2662381 0,174.9999981" style="fill:none;stroke:#000;stroke-width:1px;stroke-linecap:round;stroke-linejoin:miter;stroke-opacity:1"/><path style="fill:none;stroke:#000;stroke-width:1px;stroke-linecap:round;stroke-linejoin:miter;stroke-opacity:1" id="path3214" d="m 105.42872,-3.2662381 0,174.9999981"/><path id="path3216" d="m 100.42872,-3.2662381 0,174.9999981" style="fill:none;stroke:#000;stroke-width:1px;stroke-linecap:round;stroke-linejoin:miter;stroke-opacity:1"/><path style="fill:none;stroke:#000;stroke-width:1px;stroke-linecap:round;stroke-linejoin:miter;stroke-opacity:1" id="path3218" d="m 95.42873,-3.2662381 0,174.9999981"/><path id="path3220" d="m 90.42872,-3.2662381 0,174.9999981" style="fill:none;stroke:#000;stroke-width:1px;stroke-linecap:round;stroke-linejoin:miter;stroke-opacity:1"/><path style="fill:none;stroke:#000;stroke-width:1px;stroke-linecap:round;stroke-linejoin:miter;stroke-opacity:1" id="path3222" d="m 85.42872,-3.2662381 0,174.9999981"/><path id="path3224" d="m 80.42872,-3.2662381 0,174.9999981" style="fill:none;stroke:#000;stroke-width:1px;stroke-linecap:round;stroke-linejoin:miter;stroke-opacity:1"/><path style="fill:none;stroke:#000;stroke-width:1px;stroke-linecap:round;stroke-linejoin:miter;stroke-opacity:1" id="path3226" d="m 75.42872,-3.2662381 0,174.9999981"/><path id="path3228" d="m 70.42872,-3.2662381 0,174.9999981" style="fill:none;stroke:#000;stroke-width:1px;stroke-linecap:round;stroke-linejoin:miter;stroke-opacity:1"/><path id="path3230" d="m 130.8361,-3.5187762 0,174.9999962" style="fill:none;stroke:#000;stroke-width:1px;stroke-linecap:round;stroke-linejoin:miter;stroke-opacity:1"/><path style="fill:none;stroke:#000;stroke-width:1px;stroke-linecap:round;stroke-linejoin:miter;stroke-opacity:1" id="path3232" d="m 185.8361,-3.5187762 0,174.9999962"/><path id="path3234" d="m 180.8361,-3.5187762 0,174.9999962" style="fill:none;stroke:#000;stroke-width:1px;stroke-linecap:round;stroke-linejoin:miter;stroke-opacity:1"/><path style="fill:none;stroke:#000;stroke-width:1px;stroke-linecap:round;stroke-linejoin:miter;stroke-opacity:1" id="path3236" d="m 175.8361,-3.5187762 0,174.9999962"/><path id="path3238" d="m 170.8361,-3.5187762 0,174.9999962" style="fill:none;stroke:#000;stroke-width:1px;stroke-linecap:round;stroke-linejoin:miter;stroke-opacity:1"/><path style="fill:none;stroke:#000;stroke-width:1px;stroke-linecap:round;stroke-linejoin:miter;stroke-opacity:1" id="path3240" d="m 165.8361,-3.5187762 0,174.9999962"/><path id="path3242" d="m 160.83611,-3.5187762 0,174.9999962" style="fill:none;stroke:#000;stroke-width:1px;stroke-linecap:round;stroke-linejoin:miter;stroke-opacity:1"/><path style="fill:none;stroke:#000;stroke-width:1px;stroke-linecap:round;stroke-linejoin:miter;stroke-opacity:1" id="path3244" d="m 155.8361,-3.5187762 0,174.9999962"/><path id="path3246" d="m 150.8361,-3.5187762 0,174.9999962" style="fill:none;stroke:#000;stroke-width:1px;stroke-linecap:round;stroke-linejoin:miter;stroke-opacity:1"/><path style="fill:none;stroke:#000;stroke-width:1px;stroke-linecap:round;stroke-linejoin:miter;stroke-opacity:1" id="path3248" d="m 145.8361,-3.5187762 0,174.9999962"/><path id="path3250" d="m 140.8361,-3.5187762 0,174.9999962" style="fill:none;stroke:#000;stroke-width:1px;stroke-linecap:round;stroke-linejoin:miter;stroke-opacity:1"/><path style="fill:none;stroke:#000;stroke-width:1px;stroke-linecap:round;stroke-linejoin:miter;stroke-opacity:1" id="path3252" d="m 135.8361,-3.5187762 0,174.9999962"/><path id="path3254" d="m 223.62412,-3.0137 0,175" style="fill:none;stroke:#000;stroke-width:1px;stroke-linecap:round;stroke-linejoin:miter;stroke-opacity:1"/><text id="text3256" x="-161.986" y="218.624" transform="matrix(0,-1,1,0,0,0)" style="font-size:8.57574844px;font-style:normal;font-weight:400;line-height:125%;letter-spacing:0;word-spacing:0;fill:#000;fill-opacity:1;stroke:none;font-family:Sans" xml:space="preserve"><tspan id="tspan3258" x="-161.986" y="218.624">span12_horz_0 .. span12_horz_23</tspan></text><path style="fill:none;stroke:#000;stroke-width:1px;stroke-linecap:round;stroke-linejoin:miter;stroke-opacity:1" id="path3260" d="m 278.62412,-3.0137 0,175"/><path id="path3262" d="m 273.62412,-3.0137 0,175" style="fill:none;stroke:#000;stroke-width:1px;stroke-linecap:round;stroke-linejoin:miter;stroke-opacity:1"/><path style="fill:none;stroke:#000;stroke-width:1px;stroke-linecap:round;stroke-linejoin:miter;stroke-opacity:1" id="path3264" d="m 268.62412,-3.0137 0,175"/><path id="path3266" d="m 263.62412,-3.0137 0,175" style="fill:none;stroke:#000;stroke-width:1px;stroke-linecap:round;stroke-linejoin:miter;stroke-opacity:1"/><path style="fill:none;stroke:#000;stroke-width:1px;stroke-linecap:round;stroke-linejoin:miter;stroke-opacity:1" id="path3268" d="m 258.62412,-3.0137 0,175"/><path id="path3270" d="m 253.62412,-3.0137 0,175" style="fill:none;stroke:#000;stroke-width:1px;stroke-linecap:round;stroke-linejoin:miter;stroke-opacity:1"/><path style="fill:none;stroke:#000;stroke-width:1px;stroke-linecap:round;stroke-linejoin:miter;stroke-opacity:1" id="path3272" d="m 248.62412,-3.0137 0,175"/><path id="path3274" d="m 243.62412,-3.0137 0,175" style="fill:none;stroke:#000;stroke-width:1px;stroke-linecap:round;stroke-linejoin:miter;stroke-opacity:1"/><path style="fill:none;stroke:#000;stroke-width:1px;stroke-linecap:round;stroke-linejoin:miter;stroke-opacity:1" id="path3276" d="m 238.62412,-3.0137 0,175"/><path id="path3278" d="m 233.62412,-3.0137 0,175" style="fill:none;stroke:#000;stroke-width:1px;stroke-linecap:round;stroke-linejoin:miter;stroke-opacity:1"/><path style="fill:none;stroke:#000;stroke-width:1px;stroke-linecap:round;stroke-linejoin:miter;stroke-opacity:1" id="path3280" d="m 228.62412,-3.0137 0,175"/><path style="fill:none;stroke:#000;stroke-width:1px;stroke-linecap:round;stroke-linejoin:miter;stroke-opacity:1" id="path3282" d="m 288.77896,-3.2662381 0,174.9999981"/><path id="path3284" d="m 343.77896,-3.2662381 0,174.9999981" style="fill:none;stroke:#000;stroke-width:1px;stroke-linecap:round;stroke-linejoin:miter;stroke-opacity:1"/><path style="fill:none;stroke:#000;stroke-width:1px;stroke-linecap:round;stroke-linejoin:miter;stroke-opacity:1" id="path3286" d="m 338.77896,-3.2662381 0,174.9999981"/><path id="path3288" d="m 333.77896,-3.2662381 0,174.9999981" style="fill:none;stroke:#000;stroke-width:1px;stroke-linecap:round;stroke-linejoin:miter;stroke-opacity:1"/><path style="fill:none;stroke:#000;stroke-width:1px;stroke-linecap:round;stroke-linejoin:miter;stroke-opacity:1" id="path3290" d="m 328.77896,-3.2662381 0,174.9999981"/><path id="path3292" d="m 323.77896,-3.2662381 0,174.9999981" style="fill:none;stroke:#000;stroke-width:1px;stroke-linecap:round;stroke-linejoin:miter;stroke-opacity:1"/><path style="fill:none;stroke:#000;stroke-width:1px;stroke-linecap:round;stroke-linejoin:miter;stroke-opacity:1" id="path3294" d="m 318.77896,-3.2662381 0,174.9999981"/><path id="path3296" d="m 313.77896,-3.2662381 0,174.9999981" style="fill:none;stroke:#000;stroke-width:1px;stroke-linecap:round;stroke-linejoin:miter;stroke-opacity:1"/><path style="fill:none;stroke:#000;stroke-width:1px;stroke-linecap:round;stroke-linejoin:miter;stroke-opacity:1" id="path3298" d="m 308.77896,-3.2662381 0,174.9999981"/><path id="path3300" d="m 303.77896,-3.2662381 0,174.9999981" style="fill:none;stroke:#000;stroke-width:1px;stroke-linecap:round;stroke-linejoin:miter;stroke-opacity:1"/><path style="fill:none;stroke:#000;stroke-width:1px;stroke-linecap:round;stroke-linejoin:miter;stroke-opacity:1" id="path3302" d="m 298.77896,-3.2662381 0,174.9999981"/><path id="path3304" d="m 293.77896,-3.2662381 0,174.9999981" style="fill:none;stroke:#000;stroke-width:1px;stroke-linecap:round;stroke-linejoin:miter;stroke-opacity:1"/></g></g></svg>